<?xml version="1.0" encoding="utf-8"?>
<!-- Generator: Adobe Illustrator 17.0.0, SVG Export Plug-In . SVG Version: 6.00 Build 0)  -->
<!DOCTYPE svg PUBLIC "-//W3C//DTD SVG 1.1//EN" "http://www.w3.org/Graphics/SVG/1.1/DTD/svg11.dtd">
<svg version="1.1" id="Layer_1" xmlns="http://www.w3.org/2000/svg" xmlns:xlink="http://www.w3.org/1999/xlink" x="0px" y="0px"
	 width="16px" height="16px" viewBox="0 0 16 16" enable-background="new 0 0 16 16" xml:space="preserve">
<g>
	<g>
		<path fill="#EEF0F2" d="M0,0v16h16V0H0z M14.594,14.719H1.406V1.531h13.188V14.719z"/>
	</g>
</g>
<g>
	<path fill="#EEF0F2" d="M8.083,7.574v1.188H4.69v1.377h3.114v1.099H4.69v1.574h3.465V14H3.277V7.574H8.083z"/>
	<path fill="#EEF0F2" d="M10.189,12.416c0.078,0.15,0.182,0.271,0.311,0.364c0.129,0.094,0.28,0.162,0.454,0.207
		s0.354,0.067,0.54,0.067c0.126,0,0.261-0.01,0.405-0.031c0.144-0.021,0.279-0.062,0.405-0.121c0.126-0.061,0.23-0.143,0.314-0.248
		c0.084-0.104,0.126-0.238,0.126-0.4c0-0.174-0.056-0.314-0.166-0.423c-0.111-0.108-0.257-0.198-0.437-0.271
		c-0.181-0.071-0.385-0.135-0.612-0.188c-0.229-0.054-0.459-0.114-0.693-0.18c-0.239-0.061-0.474-0.134-0.701-0.221
		c-0.229-0.087-0.433-0.2-0.612-0.338s-0.326-0.31-0.437-0.517C8.976,9.91,8.92,9.659,8.92,9.365c0-0.33,0.071-0.617,0.212-0.859
		C9.272,8.263,9.457,8.06,9.686,7.898c0.228-0.162,0.485-0.282,0.773-0.36s0.576-0.117,0.864-0.117c0.336,0,0.658,0.038,0.968,0.113
		c0.309,0.075,0.583,0.196,0.823,0.364s0.431,0.382,0.571,0.643c0.142,0.262,0.212,0.578,0.212,0.95h-1.368
		c-0.012-0.192-0.053-0.351-0.121-0.478c-0.069-0.125-0.161-0.225-0.275-0.297c-0.113-0.072-0.244-0.123-0.391-0.152
		c-0.147-0.03-0.308-0.045-0.481-0.045c-0.114,0-0.229,0.012-0.343,0.035c-0.113,0.024-0.217,0.066-0.311,0.127
		c-0.093,0.06-0.169,0.135-0.229,0.225c-0.06,0.09-0.09,0.203-0.09,0.342c0,0.126,0.024,0.229,0.072,0.307
		c0.048,0.077,0.143,0.149,0.283,0.215c0.142,0.066,0.336,0.133,0.585,0.198c0.249,0.066,0.575,0.15,0.977,0.253
		c0.12,0.023,0.287,0.066,0.5,0.13s0.424,0.163,0.634,0.302c0.21,0.138,0.392,0.322,0.545,0.553
		c0.153,0.231,0.229,0.527,0.229,0.887c0,0.294-0.057,0.567-0.171,0.819s-0.283,0.47-0.509,0.652
		c-0.225,0.184-0.504,0.325-0.837,0.428c-0.333,0.102-0.719,0.152-1.156,0.152c-0.354,0-0.697-0.043-1.03-0.13
		s-0.627-0.224-0.883-0.41c-0.255-0.186-0.457-0.423-0.607-0.711c-0.149-0.287-0.222-0.63-0.216-1.025h1.368
		C10.072,12.083,10.111,12.266,10.189,12.416z"/>
</g>
</svg>
